<svg width="32" height="12" viewBox="0 0 32 12" fill="none" xmlns="http://www.w3.org/2000/svg">
<path d="M15.8128 0C7.03572 0 0 2.63084 0 5.92931C0 9.20769 7.0937 11.8589 15.8128 11.8589C24.532 11.8589 31.6258 9.19879 31.6258 5.92931C31.6258 2.65982 24.532 0 15.8128 0Z" fill="#003478"/>
<path d="M22.0383 7.18565C22.0426 7.21281 22.0782 7.23883 22.1127 7.25113C22.1254 7.25537 22.1317 7.26387 22.1184 7.29272C22.0199 7.50376 21.9294 7.62544 21.806 7.80882C21.6924 7.97825 21.5645 8.11043 21.4097 8.23759C21.1761 8.43086 20.8518 8.64124 20.5836 8.49981C20.4645 8.438 20.413 8.2713 20.4153 8.13635C20.4209 7.75686 20.5898 7.36727 20.9015 6.98437C21.2815 6.5165 21.7017 6.27382 21.9774 6.40647C22.2627 6.54253 22.1716 6.87281 22.0439 7.13206C22.034 7.15215 22.034 7.16911 22.0382 7.18552M25.0995 4.22867C25.12 4.19246 25.0984 4.16602 25.0527 4.16602C24.8144 4.16602 24.5018 4.16656 24.2535 4.16656C24.1944 4.16656 24.1638 4.17361 24.136 4.22878C24.0443 4.40435 22.9276 6.07804 22.7197 6.40306C22.6846 6.45256 22.6419 6.44562 22.6369 6.3889C22.6159 6.19586 22.4492 5.97395 22.1865 5.86777C21.9863 5.78659 21.7907 5.77187 21.5872 5.79888C21.2199 5.84825 20.8927 6.042 20.605 6.26053C20.1713 6.59016 19.7972 7.01742 19.3143 7.3331C19.0507 7.50495 18.6896 7.65482 18.4481 7.43111C18.2294 7.22841 18.2541 6.77821 18.5886 6.43001C18.6239 6.39352 18.6661 6.42434 18.6595 6.45673C18.628 6.6142 18.6666 6.77081 18.7862 6.88061C18.9322 7.01144 19.141 7.02621 19.3198 6.93888C19.5307 6.83435 19.6547 6.63253 19.6908 6.40347C19.7467 6.04814 19.4732 5.73475 19.1309 5.7096C18.8529 5.69008 18.5863 5.78681 18.3265 6.00124C18.1962 6.1093 18.1222 6.18913 18.0096 6.34934C17.9821 6.3888 17.94 6.39274 17.9412 6.33447C17.954 5.87954 17.766 5.62359 17.3899 5.61524C17.0979 5.60817 16.7861 5.76665 16.543 5.96047C16.2765 6.17449 16.0435 6.45811 15.7937 6.72461C15.7625 6.75743 15.7355 6.75586 15.7268 6.69222C15.7197 6.39079 15.6434 6.09884 15.504 5.89152C15.4546 5.81938 15.3507 5.78372 15.2634 5.83238C15.2231 5.85444 15.0829 5.91895 14.9807 6.00115C14.9301 6.04288 14.9103 6.10328 14.9328 6.1807C15.0674 6.63102 15.0379 7.14302 14.8551 7.57545C14.6874 7.97151 14.3613 8.32871 13.9781 8.44961C13.7257 8.52967 13.4632 8.4905 13.3008 8.26668C13.0778 7.9578 13.1679 7.42061 13.5003 6.97458C13.7937 6.58181 14.2182 6.33232 14.6415 6.17167C14.6913 6.15244 14.7016 6.12047 14.6874 6.07818C14.6645 6.00859 14.6277 5.91381 14.6129 5.87056C14.574 5.76717 14.4653 5.75047 14.3326 5.76489C14.025 5.80068 13.7475 5.90606 13.4734 6.05282C12.7557 6.43714 12.3959 7.18097 12.2382 7.5789C12.1623 7.77007 12.0973 7.88931 12.0134 7.99505C11.9003 8.13725 11.7583 8.26673 11.4986 8.49481C11.4751 8.51574 11.4575 8.5593 11.4773 8.59989C11.5038 8.65477 11.6389 8.84553 11.677 8.86255C11.7193 8.88334 11.7683 8.85405 11.788 8.84019C11.9697 8.71699 12.1871 8.52174 12.2935 8.38931C12.3309 8.34391 12.3692 8.36301 12.389 8.4319C12.4883 8.78613 12.7483 9.07538 13.1078 9.19638C13.7659 9.4183 14.4484 9.09708 14.9636 8.53786C15.2911 8.18242 15.4092 7.95381 15.5348 7.79843C15.7475 7.5349 16.167 6.94536 16.6667 6.56684C16.85 6.42724 17.0669 6.32077 17.1759 6.39149C17.2635 6.44821 17.2918 6.58001 17.1513 6.83541C16.6418 7.76582 15.8922 8.85894 15.7547 9.12402C15.7295 9.16998 15.7518 9.20618 15.7997 9.20618C16.0663 9.20486 16.3306 9.20553 16.5726 9.20553C16.6129 9.20412 16.6309 9.18516 16.6511 9.15673C17.0421 8.54468 17.4101 7.96215 17.8045 7.35986C17.8266 7.32436 17.8469 7.35136 17.8478 7.36692C17.8563 7.50666 17.8902 7.69778 17.9732 7.8233C18.1223 8.05532 18.3336 8.15502 18.5679 8.15655C18.7544 8.15938 18.8487 8.13037 19.0498 8.05526C19.2134 7.99459 19.3447 7.91496 19.4455 7.84289C19.5043 7.80188 19.5147 7.87048 19.5132 7.88094C19.4227 8.36684 19.5345 8.94256 20.0174 9.18127C20.5953 9.46622 21.2302 9.06571 21.5955 8.70415C21.6313 8.66936 21.6696 8.67303 21.6733 8.74814C21.6818 8.88619 21.7435 9.05 21.8577 9.16463C22.1638 9.47187 22.7816 9.35011 23.4015 8.87025C23.7996 8.56301 24.2161 8.12895 24.5923 7.66931C24.6064 7.65149 24.6166 7.62292 24.5894 7.59392C24.5322 7.53395 24.4493 7.46535 24.3925 7.41252C24.3666 7.39046 24.3285 7.39681 24.3068 7.41328C23.9211 7.78004 23.574 8.19829 23.0723 8.54417C22.9031 8.66227 22.6334 8.75755 22.5123 8.59355C22.465 8.5299 22.4704 8.44189 22.5165 8.32636C22.6628 7.96158 24.9787 4.43559 25.099 4.22763" fill="white"/>
<path d="M14.2094 4.65418C14.2193 4.70652 14.2397 4.71671 14.2635 4.71232C14.3814 4.6887 14.5105 4.59167 14.587 4.47919C14.6566 4.37721 14.6892 4.23005 14.62 4.17109C14.5584 4.11805 14.458 4.13303 14.3835 4.1988C14.2353 4.32977 14.1903 4.51561 14.2094 4.65429M8.30673 9.19301C7.44322 9.19867 6.68247 8.6654 6.59517 7.74159C6.54666 7.22967 6.69135 6.77344 6.98104 6.39757C7.2381 6.06265 7.67305 5.78441 8.04122 5.71644C8.16103 5.69451 8.322 5.70795 8.38855 5.78772C8.49293 5.90922 8.46293 6.04269 8.35855 6.09594C8.07766 6.23935 7.73968 6.48487 7.57244 6.82011C7.43679 7.09374 7.40939 7.4235 7.61657 7.73766C7.96334 8.26122 8.92997 8.27561 9.82873 7.44064C10.0513 7.23629 10.2505 7.03995 10.453 6.80738C10.8488 6.35476 10.9805 6.18983 11.5067 5.45995C11.5123 5.45147 11.5152 5.44042 11.5123 5.43505C11.5081 5.42515 11.501 5.42373 11.4853 5.42232C11.1341 5.43222 10.8278 5.53676 10.5301 5.75921C10.4444 5.82173 10.321 5.81296 10.267 5.73064C10.2069 5.63757 10.2501 5.51641 10.3489 5.448C10.8278 5.11496 11.3509 5.05456 11.8851 4.96441C11.8847 4.96441 11.9222 4.96581 11.9527 4.92564C12.172 4.6442 12.3376 4.39034 12.5714 4.10571C12.8069 3.81693 13.1112 3.55175 13.3436 3.35256C13.6681 3.07355 13.8762 2.97966 14.0877 2.86458C14.1434 2.83545 14.0806 2.80066 14.0637 2.80066C12.8829 2.57874 11.6556 2.29157 10.483 2.72568C9.67085 3.02875 9.31495 3.67277 9.48613 4.1031C9.60791 4.40836 10.0094 4.45798 10.3852 4.27405C10.6974 4.1211 10.9863 3.87458 11.1911 3.55724C11.3057 3.38101 11.5471 3.50816 11.4167 3.81418C11.0735 4.62071 10.418 5.26045 9.61945 5.28747C8.93986 5.30953 8.5014 4.80958 8.50283 4.1928C8.50565 2.97626 9.85993 2.1749 11.2832 2.0551C12.9973 1.91345 14.6208 2.37003 16.3227 2.57646C17.6266 2.73437 18.8768 2.73765 20.1874 2.43656C20.3424 2.4029 20.4511 2.50177 20.441 2.65826C20.4283 2.88446 20.253 3.10232 19.8213 3.33775C19.3304 3.607 18.8168 3.6887 18.2804 3.69308C16.9834 3.7044 15.7752 3.1983 14.5249 2.92663C14.5264 2.98137 14.5408 3.04656 14.495 3.08112C13.8024 3.59193 13.1764 4.11067 12.7572 4.83925C12.743 4.85608 12.7501 4.87207 12.7751 4.87037C13.1391 4.85099 13.4665 4.84165 13.8063 4.81449C13.8657 4.80884 13.868 4.79469 13.8628 4.75141C13.8326 4.50028 13.906 4.21391 14.1269 4.01692C14.353 3.81421 14.6361 3.79116 14.8238 3.93716C15.0371 4.10341 15.0182 4.40239 14.9016 4.62662C14.7828 4.85413 14.5865 4.97581 14.3982 5.03489C14.3982 5.03489 14.3586 5.04338 14.3646 5.07931C14.3716 5.13673 14.6286 5.27892 14.6505 5.3168C14.6717 5.35287 14.6604 5.40875 14.6218 5.4516C14.5946 5.48272 14.5521 5.51186 14.4976 5.51087C14.4536 5.50999 14.4269 5.49475 14.3706 5.46434C14.2555 5.40196 14.1116 5.2994 14.0156 5.1785C13.9829 5.13762 13.9662 5.13679 13.8846 5.14131C13.5169 5.16253 12.9435 5.21798 12.555 5.26649C12.4608 5.27781 12.4469 5.29576 12.4275 5.32843C11.8081 6.34985 11.1467 7.45133 10.4206 8.18879C9.64174 8.9795 8.99433 9.18769 8.30705 9.19308" fill="white"/>
<path d="M15.8087 0.969607C7.73413 0.969607 1.18903 3.20089 1.18903 5.93123C1.18903 8.66179 7.73413 10.8932 15.8087 10.8932C23.8832 10.8932 30.4279 8.66179 30.4279 5.93123C30.4279 3.20089 23.8832 0.969607 15.8087 0.969607ZM15.8087 11.3429C7.44019 11.3429 0.65625 8.92004 0.65625 5.93123C0.65625 2.94197 7.44019 0.519531 15.8087 0.519531C24.1765 0.519531 30.9601 2.94197 30.9601 5.93123C30.9601 8.92004 24.1765 11.3429 15.8087 11.3429Z" fill="white"/>
</svg>
